<svg width="65" height="37" viewBox="0 0 65 37" fill="none" xmlns="http://www.w3.org/2000/svg">
<path opacity="0.7" d="M17.3575 28.8365L12.3414 28.8535L19.9091 6.70241L25.9415 6.68188L33.6492 28.7811L28.633 28.7981L23.029 11.7478L22.8561 11.7484L17.3575 28.8365ZM17.0144 20.1409L28.8629 20.1006L28.8753 23.7521L17.0268 23.7924L17.0144 20.1409Z" fill="black"/>
<path opacity="0.5" d="M25.7851 28.7778V6.65253H30.4662V24.921H39.958V28.7778H25.7851Z" fill="black"/>
<path d="M1.9959 21.2421V18.467L13.1035 13.5793V16.772L5.49857 19.823L5.60113 19.6575V20.0516L5.49857 19.886L13.1035 22.937V26.1298L1.9959 21.2421ZM43.1854 9.40887L37.9788 28.7392H35.0835L40.2902 9.40887H43.1854ZM56.567 21.2421L45.4594 26.1298V22.937L53.0643 19.886L52.9618 20.0516V19.6575L53.0643 19.823L45.4594 16.772V13.5793L56.567 18.467V21.2421Z" fill="black" fill-opacity="0.8"/>
</svg>
