<svg width="118" height="67" viewBox="0 0 118 67" fill="none" xmlns="http://www.w3.org/2000/svg">
<path opacity="0.7" d="M31.5105 52.2174L22.4043 52.2482L36.1426 12.1368L47.0938 12.0996L61.0862 52.117L51.9799 52.1479L41.8065 21.2731L41.4925 21.2741L31.5105 52.2174ZM30.8876 36.4713L52.3972 36.3984L52.4198 43.0105L30.9102 43.0835L30.8876 36.4713Z" fill="white"/>
<path opacity="0.5" d="M46.8099 52.111V12.0464H55.3078V45.1271H72.5391V52.111H46.8099Z" fill="white"/>
<path d="M3.62329 38.4652V33.4402L23.7879 24.5894V30.3709L9.982 35.8956L10.1682 35.5959V36.3096L9.982 36.0098L23.7879 41.5344V47.3161L3.62329 38.4652ZM78.3981 17.0376L68.946 52.0412H63.6901L73.1422 17.0376H78.3981ZM102.691 38.4652L82.5263 47.3161V41.5344L96.3322 36.0098L96.1459 36.3096V35.5959L96.3322 35.8956L82.5263 30.3709V24.5894L102.691 33.4402V38.4652Z" fill="white" fill-opacity="0.8"/>
</svg>
