<svg width="14" height="14" viewBox="0 0 14 14" fill="none" xmlns="http://www.w3.org/2000/svg">
<path opacity="0.25" d="M4.68266 10.9911C4.68266 11.0476 4.61774 11.0927 4.53588 11.0927C4.44274 11.1012 4.37782 11.056 4.37782 10.9911C4.37782 10.9347 4.44274 10.8895 4.52459 10.8895C4.60927 10.881 4.68266 10.9262 4.68266 10.9911ZM3.80484 10.8641C3.78508 10.9206 3.84153 10.9855 3.92621 11.0024C3.99959 11.0306 4.08427 11.0024 4.10121 10.946C4.11814 10.8895 4.06451 10.8246 3.97984 10.7992C3.90645 10.7794 3.82459 10.8077 3.80484 10.8641ZM5.05242 10.8161C4.97056 10.8359 4.91411 10.8895 4.92258 10.9544C4.93104 11.0109 5.00443 11.0476 5.08911 11.0278C5.17096 11.0081 5.22742 10.9544 5.21895 10.898C5.21048 10.8443 5.13427 10.8077 5.05242 10.8161ZM6.90967 0C2.99476 0 0 2.97218 0 6.88709C0 10.0173 1.97016 12.696 4.78427 13.6387C5.14556 13.7036 5.27258 13.4806 5.27258 13.2972C5.27258 13.1222 5.26411 12.1568 5.26411 11.5641C5.26411 11.5641 3.2883 11.9875 2.87338 10.723C2.87338 10.723 2.55161 9.9016 2.08871 9.68991C2.08871 9.68991 1.44234 9.24677 2.13387 9.25523C2.13387 9.25523 2.83669 9.31169 3.22338 9.98346C3.84153 11.073 4.87742 10.7597 5.28104 10.5734C5.34596 10.1218 5.52943 9.80846 5.73266 9.62217C4.15484 9.44717 2.5629 9.21854 2.5629 6.50322C2.5629 5.72701 2.77742 5.3375 3.22903 4.84072C3.15564 4.65725 2.91572 3.9008 3.30242 2.92419C3.89234 2.74072 5.25 3.68629 5.25 3.68629C5.81451 3.52822 6.42137 3.44637 7.02258 3.44637C7.62378 3.44637 8.23064 3.52822 8.79515 3.68629C8.79515 3.68629 10.1528 2.7379 10.7427 2.92419C11.1294 3.90363 10.8895 4.65725 10.8161 4.84072C11.2677 5.34032 11.5443 5.72983 11.5443 6.50322C11.5443 9.22701 9.88185 9.44435 8.30403 9.62217C8.5637 9.84515 8.78386 10.2685 8.78386 10.9318C8.78386 11.8831 8.7754 13.0601 8.7754 13.2915C8.7754 13.475 8.90524 13.698 9.2637 13.6331C12.0863 12.696 14 10.0173 14 6.88709C14 2.97218 10.8246 0 6.90967 0ZM2.74355 9.73507C2.70685 9.7633 2.71532 9.82822 2.7633 9.88185C2.80847 9.92701 2.87338 9.94677 2.91008 9.91007C2.94677 9.88185 2.9383 9.81693 2.89032 9.7633C2.84516 9.71814 2.78024 9.69838 2.74355 9.73507ZM2.43871 9.50644C2.41895 9.54314 2.44718 9.5883 2.50363 9.61652C2.54879 9.64475 2.60524 9.63628 2.625 9.59677C2.64476 9.56007 2.61653 9.51491 2.56008 9.48669C2.50363 9.46975 2.45847 9.47822 2.43871 9.50644ZM3.35322 10.5113C3.30806 10.548 3.325 10.6327 3.38992 10.6863C3.45484 10.7512 3.53669 10.7597 3.57338 10.7145C3.61008 10.6778 3.59314 10.5931 3.53669 10.5395C3.47459 10.4746 3.38992 10.4661 3.35322 10.5113ZM3.03145 10.0964C2.98629 10.1246 2.98629 10.198 3.03145 10.2629C3.07661 10.3278 3.15282 10.356 3.18951 10.3278C3.23467 10.2911 3.23467 10.2177 3.18951 10.1528C3.15 10.0879 3.07661 10.0597 3.03145 10.0964Z" fill="black"/>
</svg>
