<svg width="14" height="14" viewBox="0 0 14 14" fill="none" xmlns="http://www.w3.org/2000/svg">
<path opacity="0.25" d="M13.6792 6.4315C13.4546 2.99157 10.7228 0.241641 7.30435 0.0156194V0H6.84783H6.3913V0.0156194C2.97287 0.241641 0.24013 2.99157 0.0155217 6.4315H0V6.89089V7.35029H0.0155217C0.24013 10.7902 2.97287 13.5392 6.3913 13.7653V13.7818H6.84783H7.30435V13.7653C10.7228 13.5392 13.4546 10.7902 13.6792 7.35029H13.6957V6.89089V6.4315H13.6792ZM4.28674 1.50222C3.84574 2.09208 3.47961 2.8317 3.213 3.67514H1.84526C2.44057 2.74074 3.28604 1.98458 4.28674 1.50222ZM1.36774 4.59393H2.97287C2.85052 5.1746 2.77291 5.79111 2.74826 6.4315H0.930391C0.978783 5.78468 1.13035 5.16633 1.36774 4.59393ZM0.930391 7.35029H2.74826C2.77291 7.99068 2.85052 8.60719 2.97287 9.18786H1.36774C1.13035 8.61546 0.978783 7.99711 0.930391 7.35029ZM1.84526 10.1066H3.21209C3.4787 10.9501 3.84483 11.6897 4.28674 12.2796C3.28604 11.7972 2.44057 11.042 1.84526 10.1066ZM6.3913 12.8042C5.4527 12.5515 4.64465 11.5372 4.15435 10.1066H6.3913V12.8042ZM6.3913 9.18786H3.89778C3.76904 8.61546 3.68778 7.99711 3.6613 7.35029H6.3913V9.18786ZM6.3913 6.4315H3.6613C3.68778 5.78468 3.76904 5.16633 3.89778 4.59393H6.3913V6.4315ZM6.3913 3.67514H4.15435C4.64465 2.24459 5.4527 1.23025 6.3913 0.978507V3.67514ZM11.8504 3.67514H10.4845C10.217 2.8317 9.85174 2.09208 9.40891 1.50222C10.4087 1.98458 11.2551 2.74074 11.8504 3.67514ZM7.30435 0.978507C8.24204 1.23025 9.051 2.24459 9.5413 3.67514H7.30435V0.978507ZM7.30435 4.59393H9.79696C9.92661 5.16633 10.006 5.78468 10.0343 6.4315H7.30435V4.59393ZM7.30435 7.35029H10.0343C10.0079 7.99711 9.92661 8.61546 9.79696 9.18786H7.30435V7.35029ZM7.30435 12.8042V10.1066H9.5413C9.051 11.5372 8.24204 12.5515 7.30435 12.8042ZM9.40891 12.2796C9.84991 11.6888 10.217 10.9501 10.4845 10.1066H11.8504C11.2551 11.042 10.4087 11.7972 9.40891 12.2796ZM12.3279 9.18786H10.7228C10.8451 8.60719 10.9227 7.99068 10.9474 7.35029H12.7643C12.7169 7.99711 12.5653 8.61546 12.3279 9.18786ZM10.9474 6.4315C10.9227 5.79111 10.8451 5.1746 10.7228 4.59393H12.3279C12.5653 5.16633 12.7169 5.78468 12.7653 6.4315H10.9474Z" fill="black"/>
</svg>
